<svg xmlns="http://www.w3.org/2000/svg" width="22.655" height="31.258" viewBox="0 0 22.655 31.258">
  <path id="clipboard-solid" d="M11.327,0A5.674,5.674,0,0,0,5.988,3.907H3.776A3.847,3.847,0,0,0,0,7.815V27.351a3.847,3.847,0,0,0,3.776,3.907h15.1a3.847,3.847,0,0,0,3.776-3.907V7.815a3.847,3.847,0,0,0-3.776-3.907H16.667A5.674,5.674,0,0,0,11.327,0Zm0,3.907a1.922,1.922,0,0,1,1.888,1.954,1.889,1.889,0,1,1-3.776,0A1.922,1.922,0,0,1,11.327,3.907Zm-4.72,7.815h9.439a.977.977,0,0,1,0,1.954H6.608a.977.977,0,0,1,0-1.954Z" fill="#dbebf3"/>
</svg>
